<svg xmlns="http://www.w3.org/2000/svg" width="24" height="24" viewBox="0 0 24 24" fill="none" stroke="currentColor" stroke-width="2" stroke-linecap="round" stroke-linejoin="round" class="lucide lucide-bus"><path d="M8 6v6"/><path d="M16 6v6"/><path d="M2 12h1.6c.3 0 .5.1.7.3l1.1 1.1c.4.4 1 .4 1.4 0l1.1-1.1c.2-.2.4-.3.7-.3H17c.5 0 1 .5 1 1v2c0 .5-.5 1-1 1h-1.1c-.3 0-.5.1-.7.3l-1.1 1.1c-.4.4-1 .4-1.4 0l-1.1-1.1a.94.94 0 0 1-.7-.3H4.5c-.8 0-1.5-.7-1.5-1.5v-2c0-.8.7-1.5 1.5-1.5Z"/><path d="M5 18h14"/><path d="M10 18v2"/><path d="M14 18v2"/></svg>
